<svg preserveAspectRatio="none" overflow="visible" width="25" height="25" viewBox="0 0 25 25" fill="none" xmlns="http://www.w3.org/2000/svg">
<g id="Container">
<path id="Icon" d="M20.4545 9.09091L19.0341 5.96591L15.9091 4.54545L19.0341 3.125L20.4545 0L21.875 3.125L25 4.54545L21.875 5.96591L20.4545 9.09091ZM20.4545 25L19.0341 21.875L15.9091 20.4545L19.0341 19.0341L20.4545 15.9091L21.875 19.0341L25 20.4545L21.875 21.875L20.4545 25ZM9.09091 21.5909L6.25 15.3409L0 12.5L6.25 9.65909L9.09091 3.40909L11.9318 9.65909L18.1818 12.5L11.9318 15.3409L9.09091 21.5909ZM9.09091 16.0795L10.2273 13.6364L12.6705 12.5L10.2273 11.3636L9.09091 8.92045L7.95455 11.3636L5.51136 12.5L7.95455 13.6364L9.09091 16.0795Z" fill="#006D34"/>
</g>
</svg>
